<?xml version="1.0" standalone="no"?>
<!DOCTYPE svg PUBLIC "-//W3C//DTD SVG 20010904//EN"
 "http://www.w3.org/TR/2001/REC-SVG-20010904/DTD/svg10.dtd">
<svg version="1.0" xmlns="http://www.w3.org/2000/svg"
 width="1169.000000pt" height="2065.000000pt" viewBox="0 0 1169.000000 2065.000000"
 preserveAspectRatio="xMidYMid meet">

<g transform="translate(0.000000,2065.000000) scale(0.100000,-0.100000)"
fill="#000000" stroke="none">
<path d="M316 20582 c-171 -1 -264 -6 -273 -13 -10 -9 -13 -94 -13 -434 l0
-422 31 -7 c17 -3 154 -6 304 -6 l272 0 6 -1577 c4 -867 7 -2125 7 -2795 l0
-1218 575 0 575 0 0 2333 c0 1282 3 2538 7 2790 l6 457 304 0 303 0 0 449 0
449 -922 -1 c-508 -1 -1040 -3 -1182 -5z"/>
<path d="M2560 17350 l0 -3240 575 0 575 0 2 1423 3 1422 173 3 172 2 0 -1425
0 -1425 575 0 575 0 0 3240 0 3240 -575 0 -575 0 0 -1370 0 -1370 -172 2 -173
3 -3 1368 -2 1367 -575 0 -575 0 0 -3240z"/>
<path d="M5380 17350 l0 -3240 1000 0 1000 0 0 445 0 445 -425 0 -425 0 0 980
0 980 385 0 385 0 0 445 0 445 -385 0 -385 0 2 923 3 922 423 3 422 2 0 445 0
445 -1000 0 -1000 0 0 -3240z"/>
<path d="M6445 13779 c-445 -23 -672 -226 -751 -669 -14 -80 -18 -191 -21
-710 -3 -338 0 -723 6 -855 8 -216 12 -248 36 -324 38 -120 94 -237 168 -349
122 -187 224 -296 587 -627 299 -273 454 -430 523 -526 66 -93 126 -224 138
-300 6 -39 9 -308 7 -689 -3 -604 -4 -626 -23 -659 -26 -45 -78 -71 -138 -71
-54 0 -90 16 -126 53 -20 22 -24 41 -32 134 -4 59 -8 390 -8 736 l-1 627 -550
0 -550 0 0 -667 c1 -805 8 -1000 43 -1134 80 -306 214 -458 486 -549 84 -28
115 -33 275 -42 104 -6 375 -8 636 -4 520 6 539 8 710 93 160 78 265 205 329
398 64 192 64 189 65 1170 1 815 0 897 -17 972 -40 186 -107 346 -214 507 -84
128 -360 407 -613 621 -96 82 -238 212 -316 289 -151 152 -215 241 -255 356
-23 64 -23 71 -27 658 -3 448 -1 601 8 623 18 42 83 97 124 105 79 14 145 -19
177 -90 17 -38 19 -79 19 -658 l0 -618 541 0 542 0 -6 733 c-6 779 -7 789 -58
947 -69 214 -173 344 -340 424 -135 66 -224 86 -419 96 -193 11 -754 10 -955
-1z"/>
<path d="M3505 13700 l-180 -5 -8 -55 c-4 -30 -51 -485 -104 -1010 -139 -1397
-144 -1446 -248 -2515 -53 -539 -121 -1227 -152 -1530 -30 -302 -59 -611 -64
-685 -5 -74 -19 -202 -30 -285 -24 -187 -39 -320 -39 -362 l0 -33 554 0 554 0
6 58 c4 31 22 273 41 537 20 264 44 598 55 743 11 144 20 267 20 272 0 6 99
10 265 10 146 0 265 -3 265 -7 0 -29 122 -1591 125 -1600 3 -10 124 -13 556
-13 l552 0 -6 48 c-7 52 -180 1880 -247 2597 -22 248 -52 549 -65 670 -13 121
-26 263 -30 315 -4 52 -24 271 -46 485 -21 215 -82 833 -134 1373 -52 541 -98
988 -101 993 -5 9 -1216 9 -1539 -1z m694 -1625 c11 -154 23 -327 26 -385 3
-58 37 -512 75 -1010 39 -498 70 -911 70 -917 0 -10 -47 -13 -200 -13 l-199 0
4 28 c8 50 26 310 25 374 0 35 4 92 10 128 8 58 73 914 130 1720 20 291 31
399 37 370 1 -8 11 -141 22 -295z"/>
<path d="M629 12338 c-1 -750 -3 -1374 -5 -1388 -6 -46 9 -3709 15 -3719 4 -6
360 -11 984 -13 l977 -3 0 448 0 447 -412 0 -413 0 3 2795 4 2795 -576 0 -576
0 -1 -1362z"/>
<path d="M8330 13255 l0 -445 308 -2 307 -3 3 -2792 2 -2793 575 0 575 0 0
2795 0 2795 310 0 310 0 0 445 0 445 -1195 0 -1195 0 0 -445z"/>
<path d="M9789 6779 c-310 -33 -505 -150 -613 -369 -109 -223 -120 -344 -113
-1350 4 -692 5 -718 25 -793 65 -238 195 -454 407 -675 61 -64 220 -216 355
-340 406 -373 552 -541 630 -728 46 -112 54 -250 46 -888 -7 -584 -5 -567 -81
-611 -80 -48 -168 -26 -222 54 l-23 34 0 501 c0 276 -3 599 -7 718 l-6 218
-550 0 -550 0 6 -793 c8 -953 12 -991 115 -1207 38 -81 57 -108 131 -180 128
-128 249 -183 461 -210 95 -12 864 -19 1065 -9 200 10 390 67 468 141 20 18
58 53 87 77 28 24 59 58 68 76 9 18 30 56 45 84 16 29 27 60 25 69 -2 9 2 22
9 27 19 14 53 154 60 243 3 39 10 72 15 72 5 0 8 366 5 897 -4 981 -1 928 -63
1118 -45 136 -111 254 -236 422 -117 157 -237 271 -751 709 -40 34 -107 97
-149 142 -151 159 -219 272 -239 401 -16 105 -18 1144 -2 1196 41 135 233 154
301 32 15 -29 17 -87 20 -654 l3 -623 540 0 539 0 0 637 c0 596 -7 817 -30
903 -5 19 -14 64 -21 100 -29 161 -137 332 -264 420 -122 84 -248 124 -442
140 -146 12 -952 11 -1064 -1z"/>
<path d="M1325 6766 c-251 -40 -418 -144 -526 -331 -91 -157 -116 -273 -129
-615 -11 -271 -9 -4739 2 -4885 11 -148 68 -332 140 -452 18 -30 63 -83 99
-117 133 -122 277 -186 492 -217 108 -16 1044 -15 1177 0 217 26 364 81 466
173 122 112 187 233 233 438 l25 115 4 2445 c2 1604 -1 2500 -7 2605 -13 191
-40 306 -107 444 -37 76 -61 109 -127 176 -68 68 -98 90 -177 129 -103 50
-206 80 -333 96 -120 15 -1131 11 -1232 -4z m719 -850 c18 -8 46 -31 62 -52
l29 -37 7 -266 c3 -146 7 -1201 7 -2344 1 -1895 0 -2081 -15 -2110 -65 -128
-205 -145 -288 -35 -19 26 -20 48 -27 335 -10 422 -10 4240 0 4334 11 104 38
141 126 176 41 16 60 15 99 -1z"/>
<path d="M6228 4848 c-4 -2526 -1 -3593 11 -3821 12 -222 32 -310 108 -467 39
-80 59 -108 132 -180 123 -122 253 -183 463 -216 145 -23 1253 -15 1347 10
167 43 300 120 383 220 99 118 166 310 187 536 18 189 23 1272 15 3540 l-7
2230 -572 0 -572 0 -7 -2259 c-4 -1242 -4 -2493 0 -2779 l7 -521 -32 -50 c-42
-64 -102 -97 -164 -87 -46 8 -112 48 -129 80 -22 42 -27 542 -27 3049 l-1
2577 -570 0 -570 0 -2 -1862z"/>
<path d="M3480 5303 c0 -764 3 -2222 7 -3240 l6 -1853 574 0 573 0 0 1242 c0
684 0 1323 0 1421 l0 177 380 0 380 0 0 444 0 444 -22 6 c-13 4 -184 10 -380
13 l-358 6 0 912 0 912 212 6 c116 4 308 7 426 7 l215 0 -6 98 c-4 53 -7 253
-7 445 l0 347 -1000 0 -1000 0 0 -1387z"/>
</g>
</svg>
